<svg xmlns="http://www.w3.org/2000/svg" xmlns:xlink="http://www.w3.org/1999/xlink" viewBox="0 0 367.5 82.3" enable-background="new 0 0 367.5 82.3"><style type="text/css">.st0{clip-path:url(#SVGID_2_);fill:#008799;} .st1{clip-path:url(#SVGID_4_);fill:#26ABAB;} .st2{clip-path:url(#SVGID_6_);fill:#82A603;} .st3{clip-path:url(#SVGID_8_);fill:#B5D152;} .st4{clip-path:url(#SVGID_10_);} .st5{enable-background:new ;} .st6{fill:#012340;}</style><defs><path id="SVGID_1_" d="M10.1-1h347.4v82.3H10.1z"/></defs><clipPath id="SVGID_2_"><use xlink:href="#SVGID_1_" overflow="visible"/></clipPath><path d="M23.1 27.5c2.3.2 4.7.6 7.2 1.6 3.5 1.4 6.7 4.3 9.5 7.9.6-4.9 1.6-9.6 3-13.8.1-.4.4-1.2.9-2.4-2.9-2.4-7.4-4.7-13.7-4.1-1 1-5.6 5-6.9 10.8" class="st0"/><defs><path id="SVGID_3_" d="M10.1-1h347.4v82.3H10.1z"/></defs><clipPath id="SVGID_4_"><use xlink:href="#SVGID_3_" overflow="visible"/></clipPath><path d="M41.4 60.7c-.6-3-1.1-5.8-1.4-8.4-.3-.2-.5-.3-.8-.5C10.1 33.9 28.1 18.7 30 16.7c0 0-3.9 0-9.5 2.8-2.5 1.3-4.4 3-4.4 3-.2.2-.4.3-.5.5-8.3 8.1-7.1 21.8 3.2 33.4 7.9 8.9 19.3 16.7 27 21.3-1.3-4.1-3-10.4-4.4-17" class="st1"/><defs><path id="SVGID_5_" d="M10.1-1h347.4v82.3H10.1z"/></defs><clipPath id="SVGID_6_"><use xlink:href="#SVGID_5_" overflow="visible"/></clipPath><path d="M96.7 20.7c-.5-2.4-1.3-4.7-2.5-6.8-.4-.1-6.9-2.1-14.2-.7.6 1.7.9 3.6 1 5.7.4 8-2 18.3-4.5 24.2-1.9 4.5-5.3 9.8-8.9 15 .6 4.2 1.2 7.8 1.6 10.1 6.9-5.9 14.5-13.3 20.2-21.1 6.4-9.1 8.8-18.5 7.3-26.4" class="st2"/><defs><path id="SVGID_7_" d="M10.1-1h347.4v82.3H10.1z"/></defs><clipPath id="SVGID_8_"><use xlink:href="#SVGID_7_" overflow="visible"/></clipPath><path d="M91.6 10.3c-.7-.8-1.7-1.6-2.4-2.2l-.1-.1c-.5-.4-.9-.7-.9-.7-.4-.3-.7-.5-1.1-.7-.1-.1-.2-.1-.3-.2-.2-.1-.5-.3-.7-.4s-.4-.2-.6-.3c-.1 0-.1-.1-.2-.1-1.9-1-4.1-1.8-6.5-2.4C58.7-1.6 49.5 18 47.3 24.6c-1.3 4.1-2.6 9.5-3.1 16.3-.4 5.3.5 12.2 1.9 18.8 2.1 10 5.8 21.5 5.8 21.6 0 0 11.2-8.1 12.2-8.9 0-1.6-6.3-27.8-1.6-42.4C66.2 18.7 73.4 14.5 80 13.2c7.3-1.5 13.8.6 14.2.7-.2-.4-1.1-1.9-2.6-3.6" class="st3"/><defs><path id="SVGID_9_" d="M10.1-1h347.4v82.3H10.1z"/></defs><clipPath id="SVGID_10_"><use xlink:href="#SVGID_9_" overflow="visible"/></clipPath><g class="st4"><path d="M144.8 51.9c.4-.6 1-1.6 1.7-3 1.8-3.2 2.9-4.8 3.3-4.8.4 0 .6.2.6.7 0 2.8-1.4 6.3-4.3 10.5-5.2 7.6-12.1 11.4-20.8 11.4-2.4 0-4.7-.6-6.7-1.7s-3.6-2.6-4.8-4.3c-2.4-3.6-3.6-7.3-3.6-11.2 0-9.8 2.6-17.8 7.7-23.8s11.2-9 18.2-9c2.7 0 4.8.8 6.5 2.3 1.7 1.6 2.5 3.5 2.5 5.9 0 2.4-.6 4.6-1.8 6.6-1.2 2-2.6 3.1-4.3 3.1-1.7 0-2.5-.5-2.5-1.4 0-1 .6-2.2 1.7-3.5 1.1-1.3 1.7-2.6 1.7-3.9 0-4-2.1-6-6.4-6-4.3 0-8.1 2.9-11.6 8.6-3.4 5.7-5.2 11.6-5.2 17.6 0 4.2 1.2 7.9 3.6 11.1 2.4 3.2 5.7 4.9 10 4.9 4.9.1 9.8-3.3 14.5-10.1zm24 14.4c-2.2 0-3.9-.5-5-1.4-.4-.4-.6-1.4-.6-3s.1-3.8.2-6.5c-1.5 3.7-2.9 6.4-4.4 8.2-1.4 1.8-3.3 2.7-5.6 2.7s-4.2-1.1-5.9-3.2c-1.7-2.1-2.5-5.5-2.5-10s1.3-8.6 3.9-12.1c2.6-3.5 5.9-5.3 10.1-5.3 1.8 0 3.8 1.2 6.1 3.6.5-.6 1.3-1.4 2.4-2.2 1.2-.9 2.1-1.3 3-1.3.8 0 1.2 1.1 1.2 3.2 0 .6-.2 1.7-.5 3.3-.3 1.6-.7 2.8-1.1 3.6-.5 1.3-.8 5.9-.8 13.8 0 1.5.2 2.3.5 2.3 1-.1 2.3-1.3 4-3.6 1.7-2.3 3.4-5.4 5-9 1.7-3.7 2.7-5.5 3.1-5.5.4 0 .6.2.6.7 0 1.6-.8 4.1-2.5 7.5-4.4 9.4-8.1 14.2-11.2 14.2zm-10.3-27.1c-1.6 0-3.3 1.2-5 3.5-1.8 2.3-2.7 5.1-2.7 8.3 0 3.2.5 5.8 1.4 7.8.9 2 2.2 3.1 3.7 3.1 1.9 0 4.6-4.7 8.2-14 .1-.5.1-1.2.2-2.3.1-1.1.2-1.9.2-2.5-.5-.9-1.4-1.8-2.7-2.6-1.3-.9-2.4-1.3-3.3-1.3zm26.3 4.5l4.7-.5c.5 0 .8.3 1.2.8.3.5.5 1 .5 1.6 0 .6-.2 2.5-.6 5.8-.4 3.3-.6 5.9-.6 7.8 0 1.9.2 2.8.5 2.8 1-.1 2.3-1.3 4-3.6 1.7-2.3 3.4-5.4 5-9 1.7-3.7 2.7-5.5 3.1-5.5.4 0 .6.2.6.7 0 1.6-.8 4.1-2.5 7.5-4.5 9.5-8.2 14.2-11.3 14.2-2.2 0-3.9-.5-5-1.4-.4-.4-.6-2.9-.6-7.4s.5-8.4 1.4-11.6c-3.3 0-5.6-1-6.9-3.1-.7-1.1-1-2.3-1-3.6 0-1.4.3-2.5.8-3.6.6-1 1.4-1.5 2.4-1.5s2 .6 2.9 1.7c.9 1.1 1.3 2.3 1.3 3.7 0 1.4-.4 2.7-1.2 4.1.4.1.8.1 1.3.1zM209.4 66.3c-3.2 0-5.7-1.2-7.5-3.6-1.9-2.4-2.8-5.1-2.8-8.2 0-6.2 1.3-10.8 3.9-14 2.6-3.2 6-4.7 10.1-4.7 1.9 0 3.5.5 4.7 1.6 1.2 1 1.9 2.5 1.9 4.3 0 3.4-1.4 6.2-4.3 8.5s-6.3 3.5-10.5 3.6c.2 2.2 1 4.1 2.2 5.7 1.3 1.6 2.8 2.4 4.4 2.4 1.7 0 3.2-.4 4.6-1.2 1.4-.8 2.6-1.9 3.7-3.4 2.4-3.1 4.4-6.6 6.1-10.6.5-1 .8-1.8 1.1-2.2.3-.5.5-.7.8-.7.3 0 .5.2.5.7 0 2.8-1.7 7.1-5.2 12.7-3.6 6.1-8.2 9.1-13.7 9.1zm-4.5-14.6c3.3-.6 5.8-1.6 7.3-3.2 1.6-1.6 2.3-3.6 2.3-6.2 0-2.5-.8-3.8-2.5-3.8-2 0-3.6 1.4-5 4.1-1.2 2.7-2 5.8-2.1 9.1zm24.7-16.3l.5 5.4c0 .6-.3 1-.9 1.4-.6.3-1.1.5-1.5.5-.8 0-1.5-.6-2.1-1.9-.6-1.3-.9-2.4-.9-3.5 0-4.2 1.5-7.7 4.4-10.6 2.9-2.9 6.6-5.1 11.1-6.6 0-1.9.4-3.7 1.2-5.5.8-1.7 2.1-2.6 3.9-2.6.7 0 1.1 1 1.1 3.1v3.6c1.8-.2 3.1-.3 4-.3 7.5 0 13.5 2.1 17.8 6.3 4.4 4.2 6.6 9.5 6.6 15.9 0 4.4-.8 8.3-2.4 11.7-1.6 3.4-3.7 6.1-6.4 8.1-5.4 4-11.9 5.9-19.5 5.9h-1.8c-.2 1.6-.4 2.5-.7 2.5-2.7 0-4.4-.4-5.3-1.1-.4-.4-.6-1.1-.7-2-5-1.4-7.5-3-7.5-4.7 0-.6.2-1 .6-1.3.4-.3.8-.5 1.3-.5s2.4.7 5.6 2c.5-14.8 1.2-27.5 1.9-38.1-3.1 1.1-5.6 2.7-7.5 4.8-1.9 2.1-2.8 4.7-2.8 7.5zm18.5-13.7c-.8 0-1.4 0-1.8.1-.2 9.9-.5 18.2-.8 24.9-.3 8.8-.5 14.3-.6 16.5 1.1.2 2.3.3 3.6.3 5.4 0 10-2 14-6s5.9-8.9 5.9-14.7c0-5.8-1.9-10.8-5.7-14.9-3.8-4.1-8.7-6.2-14.6-6.2zM299.9 66.3c-2.2 0-3.9-.5-5-1.4-.4-.4-.6-1.4-.6-3s.1-3.8.2-6.5c-1.5 3.7-2.9 6.4-4.4 8.2-1.4 1.8-3.3 2.7-5.6 2.7s-4.2-1.1-5.9-3.2c-1.7-2.1-2.5-5.5-2.5-10s1.3-8.6 3.9-12.1c2.6-3.5 5.9-5.3 10.1-5.3 1.8 0 3.8 1.2 6.1 3.6.5-.6 1.3-1.4 2.4-2.2 1.2-.9 2.1-1.3 3-1.3.8 0 1.2 1.1 1.2 3.2 0 .6-.2 1.7-.5 3.3-.3 1.6-.7 2.8-1.1 3.6-.5 1.3-.8 5.9-.8 13.8 0 1.5.2 2.3.5 2.3 1-.1 2.3-1.3 4-3.6 1.7-2.3 3.4-5.4 5-9 1.7-3.7 2.7-5.5 3.1-5.5.4 0 .6.2.6.7 0 1.6-.8 4.1-2.5 7.5-4.4 9.4-8.2 14.2-11.2 14.2zm-10.3-27.1c-1.6 0-3.3 1.2-5 3.5-1.8 2.3-2.7 5.1-2.7 8.3 0 3.2.5 5.8 1.4 7.8.9 2 2.2 3.1 3.7 3.1 1.9 0 4.6-4.7 8.2-14 .1-.5.1-1.2.2-2.3.1-1.1.2-1.9.2-2.5-.5-.9-1.4-1.8-2.7-2.6-1.3-.9-2.4-1.3-3.3-1.3zm31.5.7l.2-1.3c0-1-.6-1.5-1.7-1.5-1.2 0-2.3.7-3.3 2.2-1.1 1.5-1.6 2.7-1.6 3.7s.1 1.7.2 2.3c.1.6.2 1 .4 1.4.1.4.4.8.7 1.3s.6.9.8 1.1l.9 1.2c.4.6.7.9.8 1.1 2.9-2.4 6.4-5.1 10.5-8.1.2-.2.5-.3.8-.3.6 0 .8.3.8.9 0 .6-.3 1.1-.8 1.4-3.6 2.3-7 4.8-10.3 7.5 1.2 1.8 1.9 3.8 1.9 5.9 0 2.1-.8 4-2.5 5.5-1.6 1.5-3.7 2.3-6.3 2.3-2.5 0-3.8-1.2-3.8-3.6 0-1.8 1.9-4.4 5.6-8.1-.3-.3-.8-.9-1.5-1.7-.7-.8-1.3-1.4-1.7-1.8-.4-.5-.8-1-1.3-1.8-.9-1.4-1.4-2.9-1.4-4.6 0-3.3 1.1-6 3.2-8.1 2.1-2.1 4.4-3.1 6.9-3.1 1.5 0 2.7.4 3.6 1.2.8.8 1.3 1.7 1.3 2.5 0 1.9-.5 2.9-1.4 2.9-.7.3-1 .1-1-.4zm-5.4 16.7c-2.3 2.3-3.4 4.1-3.4 5.5 0 1.4.7 2.1 2.1 2.1.8 0 1.6-.3 2.1-1 1.2-1.7 1-3.9-.8-6.6zm17.5 4.7l.1 2.6c0 1.6-.5 2.4-1.4 2.4-1.4 0-2.7-.2-3.9-.6-1.2-.4-1.9-.9-1.9-1.5s.2-2.9.5-6.7c.3-3.8.5-6.7.5-8.6V44c0-14.5 2.6-23.7 7.7-27.6 1.2-.9 2.4-1.4 3.6-1.4.6 0 1.1.6 1.7 1.9.6 1.2.8 2.9.8 4.8 0 4.9-.8 9.4-2.5 13.6-1.6 4.2-3.3 7.5-5 9.7-.1 1.4-.1 3.6-.1 6.6.2-.3 1.4-2.3 3.6-5.8 2.1-3.5 4-6.1 5.5-7.7 1.5-1.6 2.8-2.5 4-2.5s2.2.4 3.2 1.2c.9.8 1.4 1.8 1.4 3 0 2.5-.3 6.1-.8 11-.5 4.8-.8 7.9-.8 9.2 0 1.3.2 1.9.5 1.9 1-.1 2.3-1.3 4-3.6 1.7-2.3 3.4-5.4 5-9 1.7-3.7 2.7-5.5 3.1-5.5.4 0 .6.2.6.7 0 1.6-.8 4.1-2.5 7.5-4.5 9.5-8.2 14.2-11.3 14.2-2.2 0-3.9-.5-5-1.4-.4-.4-.6-1.4-.6-3.1 0-1.7.2-4.4.5-8.1.3-3.8.5-6.6.5-8.4s-.3-2.8-1-2.8-2.4 1.9-5.1 5.8c-2.8 3.9-4.2 6.3-4.4 7.4-.3 2.1-.5 3.9-.5 5.7zm5.5-37.7c0-2.4-.3-3.6-.9-3.6-1 0-2 3.1-3 9.4-.5 3.3-.9 7.2-1.1 11.6 3.3-6.9 5-12.7 5-17.4z" class="st6"/></g></svg>